
        <svg xmlns="http://www.w3.org/2000/svg" xmlns:xlink="http://www.w3.org/1999/xlink" version="1.1" width="2287.0350496448987" 
        height="3261.375434245131" viewBox="0 0 2287.0350496448987 3261.375434245131">
			<rect fill="#fcfcfc" width="2287.0350496448987" height="3261.375434245131"/>
			<g transform="scale(13.068771712256563) translate(10, 10)">
				<defs id="SvgjsDefs1416"></defs><g id="SvgjsG1417" featureKey="symbolContainer" transform="matrix(2.408,0,0,2.408,20,20)" fill="#111111"><circle cx="25" cy="25" r="25"></circle></g><g id="SvgjsG1418" featureKey="monogramFeature-0" transform="matrix(1.9193858996041429,0,0,1.9193858996041429,44.241842301187575,8.20920967546882)" fill="#fcfcfc"><path d="M13.74 26.759999999999998 l-4.74 0 c-0.42 0 -0.9 -0.72 -0.9 -1.14 l0 -9.42 c0 -0.42 0.48 -1.2 0.96 -1.2 l24.24 0 c0.48 0 0.96 0.72 0.96 1.14 l0 9.54 c0 0.42 -0.42 1.08 -0.9 1.08 l-4.8 0 c-0.48 0 -0.9 -0.6 -0.96 -1.02 l-0.36 -1.8 l-1.98 0 l0 1.02 l0.36 0 c-0.06 0.06 -0.24 0.18 -0.36 0.3 l0 0.9 c0.18 -0.12 0.9 -0.66 1.08 -0.72 l0.12 0.48 c0 0.12 0 0.12 -0.06 0.12 l-1.14 0.84 l0 0.96 l1.38 -1.02 c0 0.12 0.24 0.48 0.24 0.54 l-0.06 0.06 l-1.56 1.14 l0 0.96 l2.28 -1.68 l0.96 0 l-3.24 2.4 l0 16.68 l1.5 0.54 c0.42 0.12 0.78 0.6 0.78 1.08 l0 5.94 c0 0.48 -0.42 1.14 -0.96 1.14 l-10.8 0 c-0.6 0 -0.96 -0.66 -0.96 -1.2 l0 -5.82 c0 -0.18 0.12 -0.42 0.12 -0.6 l-2.88 2.16 l-0.06 0 l0 -0.66 l4.14 -3.06 l0 0.66 c0 0.12 -0.3 0.18 -0.36 0.3 l1.32 -0.48 l0 -22.98 l-1.98 0 l-0.36 1.74 l0.06 0 c0.12 -0.12 0.78 -0.6 0.96 -0.72 l0.36 0 l0 0.48 l-2.64 1.92 c0.12 -0.18 0.24 -0.36 0.24 -0.6 z M4.08 19.380000000000003 l-0.9 0.66 c0 -0.3 0.6 -0.66 0.9 -0.66 z M3 21.119999999999997 l2.34 -1.74 l0.96 0 l-3.3 2.46 l0 -0.72 z M3 22.799999999999997 l4.08 -3.06 l0 0.72 l-4.08 3.06 l0 -0.72 z M3 24.479999999999997 l4.08 -3.06 l0 0.72 l-4.08 3.06 l0 -0.72 z M3 26.880000000000003 l0 -0.72 l4.08 -3.06 l0 0.72 z M3 27.840000000000003 l4.08 -3.06 l0 0.72 l-4.08 3.06 l0 -0.72 z M14.76 25.740000000000002 c0.06 0 0.06 -0.06 0 -0.06 l0 0.06 z M12 29.46 l4.14 -3.06 l0 0.66 l-4.08 3 s0 0.06 -0.06 0.06 l0 -0.66 z M3 29.52 l4.08 -3.06 c0.06 0.18 0.12 0.42 0.12 0.6 l-4.14 3.12 c-0.06 0 -0.06 -0.06 -0.06 -0.12 l0 -0.54 z M3.42 30.9 l0 -0.06 l4.26 -3.12 l0 -0.06 c0.06 0 0.24 0.12 0.3 0.12 c0.12 0.06 0.36 0.06 0.48 0.06 l-4.5 3.36 c-0.18 0 -0.42 -0.18 -0.54 -0.3 z M12 27.78 l0.84 0 l0.18 0 l-1.02 0.72 l0 -0.18 l-0.72 0 z M6.24 31.2 l-0.96 0 l4.44 -3.36 l0.96 0 z M12 31.8 l0 -0.72 l4.14 -3.12 l0 0.78 z M26.28 31.2 l-0.96 0 l3.84 -2.94 l0 0.72 z M8.46 31.2 l-0.96 0 l2.28 -1.74 l0 0.06 c0 0.12 -0.12 0.78 -0.18 0.78 z M12 32.760000000000005 l4.14 -3.12 l0 0.78 l-4.14 3.06 l0 -0.72 z M28.2 31.2 l-0.66 0 l1.62 -1.26 c0 0.48 -0.42 1.26 -0.96 1.26 z M12 34.44 l4.14 -3.12 l0 0.78 l-4.08 3 s0 0.06 -0.06 0.06 l0 -0.72 z M12 36.84 l0 -0.72 l4.14 -3.12 l0 0.72 z M12 38.519999999999996 l0 -0.78 l4.14 -3.06 l0 0.72 z M12 39.42 l4.14 -3.06 l0 0.72 l-4.08 3.06 l-0.06 0 l0 -0.72 z M12 41.879999999999995 l0 -0.78 l4.14 -3.06 l0 0.72 z M12 43.5 l0 -0.72 l4.14 -3.06 l0 0.72 z M12 44.46 l4.14 -3.06 l0 0.72 l-4.14 3.06 l0 -0.72 z M12 46.14 l4.14 -3.06 l0 0.72 l-4.14 3.06 l0 -0.72 z M12 48.54 l0 -0.72 l4.14 -3.06 l0 0.72 z M15.72 47.4 l0 0 z M12 51.36 l0 -0.24 l1.8 -1.32 l0 0.72 l-4.08 3.06 l0 -0.66 l0 -0.06 l1.8 -1.32 z M9.72 55.26 l0 -0.72 l4.08 -3.06 l0 0.72 z M9.72 56.22 l4.08 -3.06 l0 0.72 l-4.08 3.06 l0 -0.72 z M9.72 57.9 l4.02 -3.06 l0.06 0 l0 0.72 l-4.08 3.06 l0 -0.72 z M9.84 59.46 l4.2 -3.18 l0.06 0 c0.18 0.18 0.3 0.24 0.54 0.3 l-4.38 3.3 c-0.06 0 -0.42 -0.36 -0.42 -0.42 z M11.4 60 l4.44 -3.36 l0.96 0 l-4.44 3.36 l-0.96 0 z M13.62 60 l4.44 -3.36 l1.02 0 l-4.5 3.36 l-0.96 0 z M16.8 60 l-0.96 0 l4.5 -3.36 l0.96 0 z M19.08 60 l-0.96 0 l4.32 -3.3 l0 0.72 z M21.3 60 l-0.96 0 l2.16 -1.62 c0 0.06 -0.06 0.72 -0.12 0.78 z"></path></g><g id="SvgjsG1419" featureKey="nameFeature-0" transform="matrix(2.4841016383285077,0,0,2.4841016383285077,1.0254376155767808,130.19077797103398)" fill="#111111"><path d="M6.92 40 l0 -22.96 l-5.32 0 l0 -5.04 l15.68 0 l0 5.04 l-5.32 0 l0 22.96 l-5.04 0 z M29.692 40 l0 -22.96 l-5.32 0 l0 -5.04 l15.68 0 l0 5.04 l-5.32 0 l0 22.96 l-5.04 0 z M47.144 40 l0 -3.92 l8.76 -19.04 l-8.2 0 l0 -5.04 l14.28 0 l0 3.92 l-8.76 19.04 l8.76 0 l0 5.04 l-14.84 0 z"></path></g>
			</g>
		</svg>
	