<svg height="20" viewBox="0 0 20 20" width="20" xmlns="http://www.w3.org/2000/svg"><path d="m17.0391667 17.0433333h-2.9616667v-4.6408333c0-1.1066667-.0225-2.53083333-1.5433333-2.53083333-1.5441667 0-1.78 1.20416663-1.78 2.44916663v4.7225h-2.9616667v-9.5433333h2.845v1.30083333h.0383333c.3975-.75 1.3641667-1.54166666 2.8083334-1.54166666 3.0008333 0 3.5558333 1.975 3.5558333 4.54583333v5.2383333zm-12.5916667-10.84916663c-.95333333 0-1.71916667-.77166667-1.71916667-1.72083334 0-.94833333.76666667-1.71916666 1.71916667-1.71916666.95 0 1.72.77083333 1.72 1.71916666 0 .94916667-.77083333 1.72083334-1.72 1.72083334zm1.485 10.84916663h-2.97v-9.5433333h2.97zm12.5883333-17.0433333h-17.04499997c-.81583333 0-1.47583333.645-1.47583333 1.44083333v17.11833337c0 .7966666.66 1.4408333 1.47583333 1.4408333h17.04249997c.815 0 1.4816667-.6441667 1.4816667-1.4408333v-17.11833337c0-.79583333-.6666667-1.44083333-1.4816667-1.44083333z" fill="#555"/></svg>